# xmcd
#
# Track frame offsets:
#	150
#	23520
#	43007
#	69412
#	94165
#	117062
#	140267
#	160445
#	177767
#
# Disc length: 2660 seconds
#
# Revision: 1
# Processed by: cddbd v1.5.1PL0 Copyright (c) Steve Scherf et al.
# Submitted via: CDex 1.50Beta5
#
DISCID=6c0a6209
DTITLE=20th Century - ROAD
DYEAR=1997
DGENRE=Pop
TTITLE0=Traveler
TTITLE1=MIX JUICE
TTITLE2=Glory
TTITLE3=Going Back 2 R・e・a・l
TTITLE4=DAY
TTITLE5=ジンクス
TTITLE6=季節
TTITLE7=ダーザイン
TTITLE8=Knock me Real
EXTD=
EXTT0=
EXTT1=
EXTT2=
EXTT3=
EXTT4=
EXTT5=
EXTT6=
EXTT7=
EXTT8=
PLAYORDER=
